<svg xmlns="http://www.w3.org/2000/svg" width="124.493" height="25" viewBox="0 0 124.493 25">
  <g id="logo" transform="translate(-40 -15)">
    <path id="Vector" d="M5.249,4.968C2.122,4.968,0,6.723,0,10.385v7.3H2.343v-7.3c0-2.278,1.159-3.21,2.909-3.21,1.727,0,2.91.928,2.91,3.21v.15h2.319v-.12C10.478,6.723,8.356,4.968,5.249,4.968ZM14.99,17.682h2.343V5.294H14.99ZM16.149,0a1.558,1.558,0,0,0-.63.113,1.58,1.58,0,0,0-.534.358,1.611,1.611,0,0,0-.351.544,1.633,1.633,0,0,0-.111.641,1.628,1.628,0,1,0,3.254,0,1.632,1.632,0,0,0-.111-.641,1.61,1.61,0,0,0-.352-.544,1.579,1.579,0,0,0-.535-.358A1.557,1.557,0,0,0,16.149,0Zm19.73,4.967a4.6,4.6,0,0,0-4.291,2.458A4.631,4.631,0,0,0,27.3,4.968c-2.861,0-5.031,1.755-5.031,5.542v7.173h2.343V10.51c0-2.307,1.208-3.335,2.91-3.335,1.65,0,2.909,1.079,2.909,3.335v7.173h2.341V10.51c0-2.257,1.233-3.335,2.886-3.335,1.7,0,2.91,1.029,2.91,3.335v7.173h2.342V10.51C40.909,6.723,38.739,4.968,35.878,4.968Zm14.747,0a6.308,6.308,0,0,0-6.56,6.52,6.308,6.308,0,0,0,6.56,6.522,6.307,6.307,0,0,0,6.56-6.522A6.307,6.307,0,0,0,50.625,4.968Zm0,10.835a4.063,4.063,0,0,1-4.193-4.316,4.194,4.194,0,1,1,8.385,0A4.062,4.062,0,0,1,50.625,15.8ZM73.955,4.968a4.6,4.6,0,0,0-4.291,2.458,4.631,4.631,0,0,0-4.292-2.458c-2.861,0-5.031,1.755-5.031,5.542v7.173h2.343V10.51c0-2.307,1.208-3.335,2.909-3.335,1.65,0,2.91,1.079,2.91,3.335v7.173h2.343V10.51c0-2.257,1.233-3.335,2.886-3.335,1.7,0,2.909,1.029,2.909,3.335v7.173h2.343V10.51C78.985,6.723,76.815,4.968,73.955,4.968Zm14.747,0a6.308,6.308,0,0,0-6.56,6.52,6.56,6.56,0,0,0,13.119,0A6.307,6.307,0,0,0,88.7,4.968Zm0,10.835a4.063,4.063,0,0,1-4.193-4.316,4.194,4.194,0,1,1,8.385,0A4.062,4.062,0,0,1,88.7,15.8Z" transform="translate(69.231 18.538)" fill="#2bc6d0" fill-rule="evenodd"/>
    <path id="Vector-2" data-name="Vector" d="M3.117,0a3.09,3.09,0,0,0-2.2.928A3.2,3.2,0,0,0,0,3.17V21.891a3.2,3.2,0,0,0,.934,2.2,3.081,3.081,0,0,0,4.366,0,3.2,3.2,0,0,0,.934-2.2V3.17A3.2,3.2,0,0,0,5.321.928,3.091,3.091,0,0,0,3.117,0Z" transform="translate(40 15)" fill="#2bc6d0" fill-rule="evenodd"/>
    <path id="Vector-3" data-name="Vector" d="M8.354,2.563A4.328,4.328,0,0,1,5.3,2.588,4.5,4.5,0,0,1,6.307.451h0A4.319,4.319,0,0,0,3.313.136,4.385,4.385,0,0,0,.824,1.859a4.518,4.518,0,0,0,.44,5.735A4.332,4.332,0,0,0,6.9,8.119,4.461,4.461,0,0,0,8.624,5.612a4.531,4.531,0,0,0-.269-3.05Z" transform="translate(49.396 18.204)" fill="#f98b49" fill-rule="evenodd"/>
    <path id="Vector-4" data-name="Vector" d="M1.121.6A4.391,4.391,0,0,0,0,1.535,4.448,4.448,0,0,1,2.047,3.647a4.411,4.411,0,0,0,.639-.307,4.4,4.4,0,0,0,1.4-1.3A4.488,4.488,0,0,0,4.808.266,4.322,4.322,0,0,0,1.121.6Z" transform="translate(55.7 17.123)" fill="#2bc6d0" fill-rule="evenodd"/>
  </g>
</svg>
