<svg xmlns="http://www.w3.org/2000/svg" width="26.034" height="30" viewBox="0 0 26.034 30">
  <g id="logo" transform="translate(-20 -15)">
    <path id="Vector" d="M3.956,0a4.038,4.038,0,0,0-2.8,1.114A3.731,3.731,0,0,0,0,3.8V26.269a3.737,3.737,0,0,0,1.186,2.643,4.071,4.071,0,0,0,5.542,0,3.737,3.737,0,0,0,1.186-2.643V3.8a3.732,3.732,0,0,0-1.16-2.69A4.039,4.039,0,0,0,3.956,0Z" transform="translate(20 15)" fill="#2bc6d0" fill-rule="evenodd"/>
    <path id="Vector-2" data-name="Vector" d="M10.6,3.076a5.791,5.791,0,0,1-3.875.03A5.274,5.274,0,0,1,8.006.541h0A5.77,5.77,0,0,0,4.2.163,5.579,5.579,0,0,0,1.045,2.23,5.2,5.2,0,0,0,.017,5.769,5.264,5.264,0,0,0,1.6,9.112a5.662,5.662,0,0,0,3.455,1.572,5.736,5.736,0,0,0,3.694-.94,5.36,5.36,0,0,0,2.193-3.009,5.165,5.165,0,0,0-.341-3.66Z" transform="translate(31.926 18.843)" fill="#f98b49" fill-rule="evenodd"/>
    <path id="Vector-3" data-name="Vector" d="M1.423.718A5.513,5.513,0,0,0,0,1.841,5.488,5.488,0,0,1,2.6,4.376a5.745,5.745,0,0,0,.811-.368A5.476,5.476,0,0,0,5.181,2.451,5.227,5.227,0,0,0,6.1.319a5.767,5.767,0,0,0-4.68.4Z" transform="translate(39.931 17.549)" fill="#2bc6d0" fill-rule="evenodd"/>
  </g>
</svg>
